PathFileType	4	(X/Y/Z)	SUBJ32_1_walk_RCNL2025.trc
DataRate	CameraRate	NumFrames	NumMarkers	Units	OrigDataRate	OrigDataStartFrame	OrigNumFrames
100	100	9	25	mm	100	207	331
Frame#	Time	R_Shoulder			L_Shoulder			C7			J_Notch			R_Elbow			L_Elbow			R_Wrist			L_Wrist			R_Asis			L_Asis			Sacral			Thoracic			Sternum			R_Thigh_Lateral			R_Knee_Lateral			R_Shank_Lateral			R_Ankle_Lateral			R_Heel			R_Toe			L_Thigh_Lateral			L_Knee_Lateral			L_Shank_Lateral			L_Ankle_Lateral			L_Heel			L_Toe		
		X1	Y1	Z1	X2	Y2	Z2	X3	Y3	Z3	X4	Y4	Z4	X5	Y5	Z5	X6	Y6	Z6	X7	Y7	Z7	X8	Y8	Z8	X9	Y9	Z9	X10	Y10	Z10	X11	Y11	Z11	X12	Y12	Z12	X13	Y13	Z13	X14	Y14	Z14	X15	Y15	Z15	X16	Y16	Z16	X17	Y17	Z17	X18	Y18	Z18	X19	Y19	Z19	X20	Y20	Z20	X21	Y21	Z21	X22	Y22	Z22	X23	Y23	Z23	X24	Y24	Z24	X25	Y25	Z25
207	2.06000000	1052.792114	1322.009399	-16.457262	1069.829224	1337.281250	-385.006561	1046.913452	1412.828369	-190.582153	1155.655762	1294.559692	-196.758362	929.386292	1005.463501	69.807159	1036.895142	1032.291626	-517.660645	957.657745	757.620148	101.054489	1179.975586	817.342346	-534.184570	1132.250488	876.968933	-99.584312	1110.729004	863.802124	-353.919739	923.436340	916.335449	-211.044891	924.898010	1179.967896	-209.695374	1215.824829	1076.312744	-208.001495	1147.646973	529.715515	-23.122164	1177.449341	438.395721	-68.110619	1203.027588	278.766754	-4.892295	1216.510864	58.663151	-119.625259	1166.686768	49.216373	-172.262863	1349.208618	43.533302	-152.263077	973.574524	536.662903	-453.897736	950.413025	444.236328	-413.121063	814.659241	266.570190	-439.343079	682.583252	129.167404	-350.819092	638.063721	158.369278	-308.538300	770.847229	38.109703	-307.221863
208	2.07000000	1065.098145	1322.756470	-14.318552	1081.649780	1338.828125	-382.841980	1058.682617	1413.967407	-188.158783	1167.501953	1295.635986	-194.690613	943.538696	1005.462219	71.658966	1046.053955	1033.479004	-514.354126	973.039001	757.717010	102.371708	1185.628784	816.233734	-531.792114	1143.566650	878.412048	-97.510010	1122.818115	864.594360	-351.898010	935.031067	917.390198	-209.770065	936.582214	1181.124390	-208.026459	1227.566284	1077.459595	-205.904678	1157.021118	530.310303	-21.699934	1186.423340	438.962067	-66.735779	1209.679443	279.038940	-4.009529	1217.263794	58.830647	-119.768036	1166.984863	49.491959	-172.147995	1349.755859	42.990036	-152.779404	992.612366	536.152161	-454.258087	970.917969	443.560120	-414.457703	829.986267	270.948303	-440.572357	694.203491	137.261581	-351.991791	652.181885	169.648010	-309.858917	774.014648	39.137367	-307.200226
209	2.08000000	1077.339111	1323.742554	-12.287678	1093.331299	1340.472412	-380.778687	1070.280640	1415.228516	-185.890900	1179.179810	1296.788452	-192.745789	957.737671	1005.684509	73.528183	1055.017944	1034.765381	-511.077179	988.681091	758.081116	103.705395	1190.841248	815.124512	-529.305023	1154.749146	879.854065	-95.435532	1134.814941	865.540344	-349.846466	946.504761	918.560364	-208.422379	948.131104	1182.353760	-206.336868	1239.061401	1078.676880	-203.923904	1164.852173	530.400085	-20.521502	1194.047485	439.170441	-65.493156	1214.608887	278.890411	-3.217720	1217.813965	58.975014	-119.933357	1167.184570	49.682022	-172.149261	1350.130615	42.756134	-153.110031	1012.210815	535.733948	-454.632202	991.998047	442.981781	-415.686035	846.587646	275.279114	-441.758301	707.253723	145.518906	-353.072815	667.741028	180.819427	-311.051849	778.419250	40.867432	-307.375061
210	2.09000000	1089.474609	1324.924561	-10.364529	1104.821289	1342.154663	-378.822479	1081.699219	1416.598389	-183.775528	1190.665405	1298.020386	-190.925888	971.946594	1006.088379	75.422951	1063.788208	1036.094727	-507.863953	1004.570465	758.669800	105.050320	1195.678040	814.007568	-526.754486	1165.794678	881.281982	-93.417290	1146.727539	866.619751	-347.797729	957.855469	919.850891	-207.030823	959.536743	1183.648315	-204.619308	1250.332397	1079.953247	-202.049728	1171.376099	530.143311	-19.520327	1200.407104	439.081818	-64.347580	1218.003052	278.404755	-2.448154	1218.186279	59.069393	-120.092316	1167.312500	49.820595	-172.229370	1350.368530	42.698128	-153.270599	1032.114990	535.448730	-454.908600	1013.438171	442.541443	-416.680786	864.464111	279.319458	-442.811646	721.665588	153.795837	-354.012543	684.501465	191.609467	-312.062012	784.462769	43.401016	-307.844116
211	2.10000000	1101.461426	1326.264282	-8.548275	1116.079956	1343.831299	-376.979187	1092.942017	1418.068848	-181.803802	1201.947144	1299.347656	-189.225861	986.132935	1006.637024	77.347473	1072.367188	1037.420654	-504.740784	1020.689178	759.447083	106.400623	1200.206299	812.883728	-524.167801	1176.686768	882.699341	-91.491020	1158.566772	867.823547	-345.780762	969.081543	921.263733	-205.642197	970.797424	1185.012451	-202.875198	1261.414795	1081.293335	-200.264191	1176.962158	529.753357	-18.586853	1205.689453	438.804657	-63.254551	1220.187012	277.731812	-1.639808	1218.406250	59.106739	-120.215645	1167.390259	49.934887	-172.351654	1350.496948	42.725315	-153.280746	1052.063354	535.348206	-454.981201	1035.066650	442.300934	-417.350006	883.567566	282.875183	-443.645782	737.354065	161.927933	-354.757416	702.229492	201.756729	-312.802856	792.533447	46.734016	-308.685059
212	2.11000000	1113.259766	1327.732178	-6.837051	1127.083618	1345.477417	-375.254974	1104.018677	1419.631714	-179.964645	1213.026367	1300.789307	-187.634995	1000.269897	1007.303894	79.301460	1080.761597	1038.712769	-501.726501	1037.015839	760.390015	107.751274	1204.486938	811.761963	-521.559830	1187.400024	884.122131	-89.665092	1170.345703	869.150391	-343.815674	980.181213	922.793823	-204.311371	981.917175	1186.451904	-201.116577	1272.348755	1082.712280	-198.548218	1181.970459	529.424500	-17.615854	1210.130981	438.461273	-62.171997	1221.548340	277.041016	-0.754695	1218.499023	59.094669	-120.282059	1167.433960	50.041473	-172.487518	1350.539062	42.781704	-153.160278	1071.829834	535.490906	-454.773193	1056.765259	442.336182	-417.650909	903.781372	285.854370	-444.185974	754.218872	169.739471	-355.264282	720.721436	211.026321	-313.183838	802.969727	50.758549	-309.937683
213	2.12000000	1124.839478	1329.306519	-5.228301	1137.825073	1347.083496	-373.656982	1114.939941	1421.276489	-178.248062	1223.917358	1302.358154	-186.140671	1014.336609	1008.074402	81.280319	1088.982788	1039.958374	-498.833099	1053.526733	761.490021	109.098640	1208.569519	810.656921	-518.932175	1197.905518	885.572327	-87.923386	1182.077271	870.599976	-341.908539	991.152161	924.430237	-203.089996	992.903687	1187.967041	-199.367050	1283.172119	1084.226562	-196.886612	1186.658569	529.285461	-16.543360	1213.964233	438.153351	-61.074581	1222.449707	276.463135	0.211776	1218.489258	59.048733	-120.283188	1167.451538	50.146332	-172.613525	1350.515625	42.836414	-152.929550	1091.263184	535.929871	-454.251770	1078.465454	442.719116	-417.586700	924.916687	288.286774	-444.376007	772.144775	177.053711	-355.508148	739.808655	219.218506	-313.153442	816.025574	55.284451	-311.574249
214	2.13000000	1136.182983	1330.970947	-3.720558	1148.311768	1348.649902	-372.193390	1125.715332	1422.988892	-176.647964	1234.643311	1304.054932	-184.733246	1028.316284	1008.943176	83.275261	1097.044556	1041.157593	-496.064453	1070.196472	762.749908	110.441006	1212.494202	809.587341	-516.282486	1208.181519	887.071411	-86.234123	1193.774414	872.168518	-340.049927	1001.994873	926.156677	-202.016129	1003.766418	1189.551147	-197.658005	1293.914673	1085.844604	-195.269958	1191.160156	529.384583	-15.364162	1217.374634	437.939941	-59.965305	1223.171387	276.056702	1.231046	1218.401978	58.985470	-120.223824	1167.446533	50.251503	-172.712372	1350.445190	42.874897	-152.610611	1110.310059	536.699890	-453.427856	1100.135742	443.498413	-417.191895	946.734497	290.298370	-444.184937	791.019104	183.690536	-355.485046	759.359436	226.169983	-312.726013	831.830566	60.066483	-313.471802
215	2.14000000	1147.287598	1332.711670	-2.314214	1158.563232	1350.180664	-370.872009	1136.353516	1424.751587	-175.163559	1245.229614	1305.865845	-183.408676	1042.192505	1009.908813	85.274010	1104.960449	1042.316040	-493.415680	1086.999023	764.178040	111.777977	1216.294617	808.573608	-513.612610	1218.222778	888.633362	-84.559898	1205.447998	873.849670	-338.219635	1012.714600	927.951965	-201.106735	1014.515991	1191.193604	-196.020599	1304.594238	1087.562378	-193.694382	1195.508545	529.700867	-14.128533	1220.480713	437.836395	-58.876328	1223.887695	275.818329	2.251827	1218.262939	58.917912	-120.119942	1167.423462	50.360275	-172.780502	1350.343994	42.892174	-152.228439	1129.013428	537.813477	-452.343689	1121.766357	444.691101	-416.517395	968.989014	292.058197	-443.612640	810.756104	189.462738	-355.214417	779.282166	231.752686	-311.980316	850.364441	64.836578	-315.417297
